<?xml version="1.0" encoding="utf-8"?>
<!-- Generator: Adobe Illustrator 19.0.0, SVG Export Plug-In . SVG Version: 6.00 Build 0)  -->
<svg version="1.1" id="Layer_1" xmlns="http://www.w3.org/2000/svg" xmlns:xlink="http://www.w3.org/1999/xlink" x="0px" y="0px"
	 viewBox="0 0 100.2 30.6" style="enable-background:new 0 0 100.2 30.6;" xml:space="preserve">
<style type="text/css">
	.st0{fill:#EF4137;}
</style>
<g>
	<g>
		<path class="st0" d="M7.4,24.8c-0.1,0-0.3-0.1-0.5-0.2L1.1,19c-0.3-0.3-0.5-0.5-0.6-0.6c-0.1-0.1-0.3-0.3-0.4-0.5
			C0.1,17.6,0,17.4,0,17.2v-0.8c0-0.3,0.1-0.5,0.2-0.7c0.2-0.2,0.3-0.4,0.4-0.5c0.1-0.1,0.3-0.3,0.6-0.6l5.8-5.8
			C7,8.7,7.2,8.7,7.4,8.7s0.4,0.1,0.5,0.2C8,9,8.1,9.2,8.1,9.4v0.9c0,0.1,0,0.2,0,0.3c0,0.1-0.1,0.2-0.1,0.2c0,0.1-0.1,0.2-0.1,0.2
			c-0.1,0.1-0.1,0.2-0.1,0.2c0,0.1-0.1,0.1-0.2,0.2c-0.1,0.1-0.2,0.2-0.2,0.2s-0.1,0.1-0.2,0.2c-0.1,0.1-0.2,0.2-0.2,0.2l-4.5,4.6
			c-0.1,0.1-0.2,0.2-0.2,0.3s0.1,0.2,0.2,0.3l4.5,4.4c0.1,0.1,0.1,0.1,0.2,0.2c0.1,0.1,0.2,0.2,0.2,0.2C7.6,21.9,7.6,22,7.7,22
			c0.1,0.1,0.1,0.1,0.2,0.2c0.1,0.1,0.1,0.1,0.1,0.2C8,22.4,8,22.5,8.1,22.5c0,0.1,0.1,0.2,0.1,0.2c0,0.1,0,0.2,0,0.3v1
			c0,0.2-0.1,0.4-0.2,0.5C7.7,24.7,7.6,24.8,7.4,24.8z"/>
		<path class="st0" d="M13,30.6c-0.1,0-0.2-0.2-0.2-0.4v-0.1c0-0.1,0-0.1,0-0.1l4.7-29.4C17.6,0.2,17.7,0,17.9,0h2.8
			c0.2,0,0.2,0.2,0.2,0.4c0,0.1,0,0.2,0,0.2L16.2,30c-0.1,0.4-0.2,0.6-0.4,0.6H13z"/>
		<path class="st0" d="M25.3,27.2c-0.2,0-0.3-0.1-0.4-0.2c-0.1-0.1-0.1-0.3-0.1-0.6V4.2c0-0.3,0.1-0.6,0.1-0.6
			c0.1-0.1,0.2-0.2,0.4-0.2h2.9c0.2,0,0.3,0.1,0.4,0.2c0.1,0.1,0.1,0.3,0.1,0.6V13c0,0.1,0,0.2,0.1,0.3c0.1,0.1,0.1,0.1,0.2,0.1h6
			c0.1,0,0.1-0.1,0.2-0.1c0.1-0.1,0.1-0.2,0.1-0.3V4.2c0-0.3,0.1-0.5,0.2-0.6c0.1-0.1,0.2-0.2,0.4-0.2h3c0.2,0,0.3,0.1,0.4,0.2
			c0.1,0.1,0.1,0.3,0.1,0.6v22.2c0,0.3-0.1,0.6-0.1,0.6c-0.1,0.1-0.2,0.2-0.4,0.2h-3c-0.1,0-0.2,0-0.3-0.1c-0.1-0.1-0.1-0.1-0.2-0.2
			c-0.1-0.1-0.1-0.3-0.1-0.5V16.3c0-0.3-0.1-0.4-0.2-0.4h-6c-0.2,0-0.2,0.1-0.2,0.4v10.1c0,0.3-0.1,0.5-0.2,0.6
			c-0.1,0.1-0.2,0.2-0.4,0.2H25.3z"/>
		<path class="st0" d="M46.5,27.2c-0.2,0-0.3-0.1-0.4-0.2C46,26.9,46,26.7,46,26.4V6.5c0-0.3-0.1-0.4-0.2-0.4h-3.5
			c-0.2,0-0.2,0-0.3,0c-0.1,0-0.1-0.1-0.2-0.2c-0.1-0.1-0.1-0.3-0.1-0.5V4.2c0-0.3,0.1-0.5,0.1-0.6c0.1-0.1,0.2-0.2,0.4-0.2h11.3
			c0.2,0,0.3,0.1,0.4,0.2C54,3.7,54,3.9,54,4.2v1.3C54,5.8,54,6,53.9,6c-0.1,0.1-0.2,0.1-0.4,0.1h-3.4c-0.2,0-0.2,0.2-0.2,0.4v19.9
			c0,0.3-0.1,0.6-0.2,0.7c-0.1,0.1-0.2,0.2-0.4,0.2L46.5,27.2L46.5,27.2z"/>
		<path class="st0" d="M56.9,27.2c-0.3,0-0.5-0.3-0.5-0.8v-0.1l0.9-21.9c0-0.6,0.2-0.9,0.5-0.9H61c0.2,0,0.4,0.1,0.5,0.2
			c0.2,0.1,0.3,0.3,0.3,0.6l3.4,15.6c0,0.1,0.1,0.1,0.1,0.1c0.1,0,0.1,0,0.1,0c0.1,0,0.1-0.1,0.1-0.1l3.4-15.5
			c0.1-0.5,0.4-0.8,0.8-0.8h3.2c0.3,0,0.5,0.4,0.5,0.9l0.9,21.9v0.1c0,0.5-0.2,0.8-0.5,0.8h-2.2c-0.3,0-0.5-0.3-0.5-0.9l-0.6-17
			c0-0.1,0-0.1-0.1-0.1c-0.1,0-0.1,0-0.1,0.1l-3.6,17.1c-0.1,0.5-0.4,0.8-0.7,0.8h-1.3c-0.3,0-0.6-0.3-0.7-0.8l-3.5-17
			c0-0.1-0.1-0.1-0.1-0.1c0,0,0,0.1,0,0.1l-0.7,16.9c0,0.6-0.2,0.9-0.5,0.9L56.9,27.2L56.9,27.2z"/>
		<path class="st0" d="M78.9,27.2c-0.2,0-0.3-0.1-0.4-0.2c-0.1-0.1-0.1-0.3-0.1-0.6V4.2c0-0.3,0.1-0.6,0.1-0.6
			c0.1-0.1,0.2-0.2,0.4-0.2h3c0.2,0,0.3,0.1,0.4,0.2c0.1,0.1,0.1,0.3,0.1,0.6v20c0,0.3,0.1,0.4,0.3,0.4h5.2c0.2,0,0.3,0.1,0.4,0.1
			c0.1,0.1,0.1,0.3,0.1,0.5v1.3c0,0.3-0.1,0.5-0.1,0.6c-0.1,0.1-0.2,0.1-0.4,0.1H78.9z"/>
		<path class="st0" d="M92.8,24.8c-0.2,0-0.4-0.1-0.5-0.2c-0.1-0.2-0.2-0.3-0.2-0.5v-0.9c0-0.1,0-0.2,0-0.2c0-0.1,0-0.2,0.1-0.2
			c0-0.1,0.1-0.1,0.1-0.2c0.1-0.1,0.1-0.1,0.1-0.2c0-0.1,0.1-0.1,0.1-0.2c0.1-0.1,0.1-0.1,0.1-0.2c0-0.1,0.1-0.1,0.1-0.2
			c0.1-0.1,0.1-0.1,0.2-0.2c0.1,0,0.1-0.1,0.2-0.2c0.1-0.1,0.2-0.1,0.2-0.2l4.5-4.6c0.1-0.1,0.2-0.2,0.2-0.3s-0.1-0.2-0.2-0.3
			l-4.4-4.4c-0.1-0.1-0.1-0.1-0.3-0.2c-0.1-0.1-0.2-0.2-0.2-0.2c-0.1-0.1-0.1-0.1-0.2-0.2c-0.1-0.1-0.2-0.2-0.2-0.2
			s-0.1-0.1-0.1-0.2c-0.1-0.1-0.1-0.2-0.1-0.3c0-0.1,0-0.2,0-0.3V9.3c0-0.2,0.1-0.4,0.2-0.5c0.1-0.1,0.3-0.2,0.5-0.2
			c0.2,0,0.3,0.1,0.5,0.2l5.8,5.7c0.3,0.3,0.5,0.5,0.6,0.6c0.1,0.1,0.2,0.3,0.3,0.5c0.1,0.2,0.2,0.5,0.2,0.7V17c0,0.1,0,0.2,0,0.3
			c0,0.1-0.1,0.2-0.1,0.2c-0.1,0.1-0.1,0.2-0.1,0.2c0,0.1-0.1,0.1-0.1,0.2c-0.1,0.1-0.1,0.2-0.1,0.2s-0.1,0.1-0.2,0.2
			c-0.1,0.1-0.2,0.2-0.2,0.2s-0.1,0.1-0.2,0.2c-0.1,0.1-0.2,0.2-0.2,0.2l-5.8,5.8C93.1,24.7,93,24.8,92.8,24.8z"/>
	</g>
</g>
</svg>
